<?xml version="1.0" encoding="utf-8"?>
<!-- Generator: Adobe Illustrator 19.0.0, SVG Export Plug-In . SVG Version: 6.00 Build 0)  -->
<svg version="1.1" id="Layer_1" xmlns="http://www.w3.org/2000/svg" xmlns:xlink="http://www.w3.org/1999/xlink" x="0px" y="0px"
	 viewBox="0 0 1363.2 174" style="enable-background:new 0 0 1363.2 174;" xml:space="preserve">
<style type="text/css">
	.st0{fill:#007EE5;}
</style>
<g id="XMLID_12_">
	<path id="XMLID_29_" class="st0" d="M210.5,37h36.2c31,0,50.6,20,50.6,51.2s-19.5,51.2-50.6,51.2h-36.2V37z M245.9,120.7
		c19.5,0,30.2-12.5,30.2-32.4c0-20-10.7-32.5-30.2-32.5h-14.2v64.9H245.9z"/>
	<path id="XMLID_27_" class="st0" d="M352.2,85.3c-2.8-1.7-6.5-2.5-10.4-2.5c-7,0-12.7,3.7-14.2,10.5v46.2H307V64.9h20.7v7.3
		c3.2-5.3,9.3-9,16.7-9c3.5,0,6.7,0.7,7.8,1.3V85.3z"/>
	<path id="XMLID_24_" class="st0" d="M393.5,141.2c-21.7,0-36.6-16-36.6-38.9c0-23,14.9-39.1,36.6-39.1c21.7,0,36.5,16,36.5,39.1
		C430,125.2,415.2,141.2,393.5,141.2z M393.5,80.8c-10.4,0-16,9-16,21.5c0,12.3,5.7,21.4,16,21.4c10.3,0,16-9,16-21.4
		C409.5,89.8,403.8,80.8,393.5,80.8z"/>
	<path id="XMLID_21_" class="st0" d="M459.6,167.1h-20.7V64.9h20.7v6.2c3.3-4,10.7-7.8,18.7-7.8c21.7,0,34,18,34,39.1
		c0,21-12.3,38.9-34,38.9c-8,0-15.4-3.8-18.7-7.8V167.1z M459.6,114.5c2.5,5.2,8,8.7,14,8.7c11.2,0,17.9-9,17.9-20.9
		c0-12-6.7-21-17.9-21c-6.2,0-11.5,3.7-14,8.7V114.5z"/>
	<path id="XMLID_18_" class="st0" d="M542.1,139.5h-20.9V31h20.9v40.1c3.3-4,10.7-7.8,18.7-7.8c21.7,0,33.9,17.7,33.9,39.1
		s-12.2,38.9-33.9,38.9c-8,0-15.4-3.8-18.7-7.8V139.5z M542.1,114.5c2.3,5.2,7.8,8.7,14,8.7c11.2,0,17.9-9,17.9-20.9
		c0-12-6.7-21-17.9-21c-6,0-11.7,3.7-14,8.7V114.5z"/>
	<path id="XMLID_15_" class="st0" d="M638.7,141.4c-21.7,0-36.6-16-36.6-38.9c0-23,14.9-39.1,36.6-39.1c21.7,0,36.5,16,36.5,39.1
		C675.2,125.4,660.3,141.4,638.7,141.4z M638.7,81c-10.4,0-16,9-16,21.5c0,12.3,5.7,21.4,16,21.4c10.3,0,16-9,16-21.4
		C654.7,90,649,81,638.7,81z"/>
	<path id="XMLID_13_" class="st0" d="M721.7,101l27.2,38.6h-22.9l-16-23.4l-16.2,23.4h-21.7l26.9-38.1L673.7,65h22.9l14.4,21.2
		L725.6,65h21.7L721.7,101z"/>
</g>
<g id="XMLID_6_">
	<polygon id="XMLID_11_" class="st0" points="54.9,1.9 1,36.6 38.3,66.7 92.5,33.2 	"/>
	<polygon id="XMLID_10_" class="st0" points="1,96.1 54.9,131.5 92.5,100.2 38.3,66.7 	"/>
	<polygon id="XMLID_9_" class="st0" points="92.5,100.2 130.1,131.5 183.8,96.5 146.6,66.7 	"/>
	<polygon id="XMLID_8_" class="st0" points="183.8,36.9 130.1,1.9 92.5,33.2 146.6,66.7 	"/>
	<polygon id="XMLID_7_" class="st0" points="92.6,106.9 54.9,138.2 38.7,127.7 38.7,139.5 92.6,171.8 146.4,139.5 146.4,127.7 
		130.3,138.2 	"/>
</g>
<g id="XMLID_67_">
	<path id="XMLID_84_" class="st0" d="M852.7,110.5c0,18.9-13,29.1-34.4,29.1h-42.6V37h39.2c21.4,0,34.6,9.5,34.6,27.9
		c0,11-6,19-13.5,21.7C845.7,89.8,852.7,99.3,852.7,110.5z M813.6,79.1c10.2,0,15.5-4,15.5-12.2s-5.3-11.9-15.5-11.9h-17.4v24H813.6
		z M796.2,121.5h20.2c10,0,15.4-5,15.4-12.9c0-8-5.3-12.9-15.4-12.9h-20.2V121.5z"/>
	<path id="XMLID_82_" class="st0" d="M932.5,139.6h-20.7v-6.8c-4.2,4.7-11.4,8.5-20,8.5c-16.7,0-26.2-11-26.2-27.6V64.9h20.7v44.6
		c0,7.9,3.8,13.2,12,13.2c6.3,0,11.9-3.8,13.4-10.4V64.9h20.9V139.6z"/>
	<path id="XMLID_80_" class="st0" d="M966.1,117.4c1.7,5.3,6.3,8.2,12.5,8.2c6.3,0,10.5-2.5,10.5-7.3c0-3.3-2.3-5-7.5-6.3l-15-3.3
		c-11.4-2.7-19.4-8.5-19.4-21c0-14.5,13-24.2,29.7-24.2c18.9,0,29.2,9,31.7,23H989c-1.3-4.2-4.8-7.3-11.7-7.3c-5,0-9.9,2.3-9.9,7
		c0,3,2,4.7,6.7,5.8l15.4,3.5c13,3.2,19.9,10.4,19.9,21.7c0,15.2-13.2,24.2-30.6,24.2c-18.2,0-31.1-8.7-33.2-23.9H966.1z"/>
	<path id="XMLID_77_" class="st0" d="M1033.6,55.2c-6.7,0-12.4-4.8-12.4-11.9c0-6.8,5.7-11.9,12.4-11.9c6.5,0,12.2,5,12.2,11.9
		C1045.8,50.4,1040.1,55.2,1033.6,55.2z M1043.9,139.6h-20.7V64.9h20.7V139.6z"/>
	<path id="XMLID_75_" class="st0" d="M1063.3,64.9h20.7v6.8c4-4.7,11.4-8.5,20-8.5c16.9,0,26.4,11,26.4,27.6v48.8h-20.7V95.1
		c0-7.9-4-13.2-12.2-13.2c-6.3,0-11.9,3.8-13.5,10.4v47.3h-20.7V64.9z"/>
	<path id="XMLID_72_" class="st0" d="M1212.3,115.2c-2.7,15.9-14.4,26.1-33.1,26.1c-21.7,0-36.2-15.9-36.2-38.9
		c0-22.5,15-39.1,35.9-39.1c21.9,0,33.9,15.2,33.9,37.1v6.3H1163c0.7,11.2,7,17.9,16.2,17.9c7,0,12.2-3,13.9-9.4H1212.3z
		 M1163.5,94.1h28.9c-0.2-7.9-4.8-14-13.4-14C1171.1,80.1,1165.4,85,1163.5,94.1z"/>
	<path id="XMLID_70_" class="st0" d="M1242.7,117.4c1.7,5.3,6.3,8.2,12.5,8.2c6.3,0,10.5-2.5,10.5-7.3c0-3.3-2.3-5-7.5-6.3l-15-3.3
		c-11.4-2.7-19.4-8.5-19.4-21c0-14.5,13-24.2,29.7-24.2c18.9,0,29.2,9,31.7,23h-19.7c-1.3-4.2-4.8-7.3-11.7-7.3c-5,0-9.9,2.3-9.9,7
		c0,3,2,4.7,6.7,5.8l15.4,3.5c13,3.2,19.9,10.4,19.9,21.7c0,15.2-13.2,24.2-30.6,24.2c-18.2,0-31.1-8.7-33.2-23.9H1242.7z"/>
	<path id="XMLID_68_" class="st0" d="M1315.4,117.4c1.7,5.3,6.3,8.2,12.5,8.2c6.3,0,10.5-2.5,10.5-7.3c0-3.3-2.3-5-7.5-6.3l-15-3.3
		c-11.4-2.7-19.4-8.5-19.4-21c0-14.5,13-24.2,29.7-24.2c18.9,0,29.2,9,31.7,23h-19.7c-1.3-4.2-4.8-7.3-11.7-7.3c-5,0-9.9,2.3-9.9,7
		c0,3,2,4.7,6.7,5.8l15.4,3.5c13,3.2,19.9,10.4,19.9,21.7c0,15.2-13.2,24.2-30.6,24.2c-18.2,0-31.1-8.7-33.2-23.9H1315.4z"/>
</g>
</svg>
