<svg id="Layer_1" data-name="Layer 1" xmlns="http://www.w3.org/2000/svg" viewBox="0 0 548.53 66.45"><defs><style>.cls-1{fill:#007ee5;}</style></defs><title>Dropbox-Education-logo</title><g id="_Group_" data-name="&lt;Group&gt;"><g id="_Group_2" data-name="&lt;Group&gt;"><g id="_Group_3" data-name="&lt;Group&gt;"><path id="_Compound_Path_" data-name="&lt;Compound Path&gt;" class="cls-1" d="M82.1,13.41H96.23c12.11,0,19.73,7.81,19.73,20s-7.62,20-19.73,20H82.1v-40ZM95.9,46c7.62,0,11.78-4.88,11.78-12.63S103.52,20.7,95.9,20.7H90.37V46H95.9Z" transform="translate(-0.18 -0.17)"/><path id="_Compound_Path_2" data-name="&lt;Compound Path&gt;" class="cls-1" d="M137.39,32.22a8.09,8.09,0,0,0-4-1c-2.73,0-4.95,1.43-5.53,4.1v18h-8.07V24.28h8.07v2.86a7.48,7.48,0,0,1,6.51-3.52,7.65,7.65,0,0,1,3.06.52v8.07Z" transform="translate(-0.18 -0.17)"/><path id="_Compound_Path_3" data-name="&lt;Compound Path&gt;" class="cls-1" d="M153.49,54c-8.47,0-14.26-6.25-14.26-15.17s5.8-15.24,14.26-15.24,14.26,6.25,14.26,15.24S162,54,153.49,54Zm0-23.57c-4,0-6.25,3.52-6.25,8.4s2.21,8.33,6.25,8.33,6.25-3.52,6.25-8.33S157.53,30.47,153.49,30.47Z" transform="translate(-0.18 -0.17)"/><path id="_Compound_Path_4" data-name="&lt;Compound Path&gt;" class="cls-1" d="M179.29,64.13h-8.07V24.28h8.07v2.41a10,10,0,0,1,7.29-3.06c8.46,0,13.28,7,13.28,15.24S195,54,186.58,54A10,10,0,0,1,179.29,51V64.13Zm0-20.51A6.11,6.11,0,0,0,184.76,47c4.36,0,7-3.52,7-8.14s-2.6-8.2-7-8.2A6.16,6.16,0,0,0,179.29,34v9.57Z" transform="translate(-0.18 -0.17)"/><path id="_Compound_Path_5" data-name="&lt;Compound Path&gt;" class="cls-1" d="M211.46,53.38h-8.14V11.06h8.14V26.69a10,10,0,0,1,7.29-3.06c8.46,0,13.22,6.9,13.22,15.24S227.21,54,218.75,54A10,10,0,0,1,211.46,51v2.41Zm0-9.77A6,6,0,0,0,216.93,47c4.36,0,7-3.52,7-8.14s-2.6-8.2-7-8.2A6.16,6.16,0,0,0,211.46,34v9.57Z" transform="translate(-0.18 -0.17)"/><path id="_Compound_Path_6" data-name="&lt;Compound Path&gt;" class="cls-1" d="M249.13,54.13c-8.47,0-14.26-6.25-14.26-15.17s5.8-15.24,14.26-15.24S263.39,30,263.39,39,257.59,54.13,249.13,54.13Zm0-23.57c-4,0-6.25,3.52-6.25,8.4s2.21,8.33,6.25,8.33,6.25-3.52,6.25-8.33S253.16,30.56,249.13,30.56Z" transform="translate(-0.18 -0.17)"/><path id="_Compound_Path_7" data-name="&lt;Compound Path&gt;" class="cls-1" d="M281.55,38.36l10.61,15h-8.92L277,44.29l-6.32,9.12h-8.46l10.48-14.84L262.79,24.3h8.92l5.6,8.27L283,24.3h8.46Z" transform="translate(-0.18 -0.17)"/></g><g id="_Group_4" data-name="&lt;Group&gt;"><polygon id="_Path_" data-name="&lt;Path&gt;" class="cls-1" points="21.05 0 0 13.59 14.57 25.36 35.76 12.27 21.05 0"/><polygon id="_Path_2" data-name="&lt;Path&gt;" class="cls-1" points="0 36.86 21.05 50.71 35.76 38.44 14.57 25.36 0 36.86"/><polygon id="_Path_3" data-name="&lt;Path&gt;" class="cls-1" points="35.76 38.44 50.46 50.71 71.48 36.99 56.95 25.36 35.76 38.44"/><polygon id="_Path_4" data-name="&lt;Path&gt;" class="cls-1" points="71.48 13.72 50.46 0 35.76 12.27 56.95 25.36 71.48 13.72"/><polygon id="_Path_5" data-name="&lt;Path&gt;" class="cls-1" points="35.8 41.08 21.05 53.32 14.74 49.2 14.74 53.82 35.8 66.44 56.86 53.82 56.86 49.2 50.55 53.32 35.8 41.08"/></g></g></g><path class="cls-1" d="M329.63,13.45v7.26H310.77V29.4h17.11v7.07H310.77v9.46h18.86v7.32h-27V13.45h27Z" transform="translate(-0.18 -0.17)"/><path class="cls-1" d="M353.55,50.85a10,10,0,0,1-7.26,3c-8.43,0-13.16-6.81-13.16-15.1s4.73-15.17,13.16-15.17a10,10,0,0,1,7.26,3V11.12h8.1V53.25h-8.1v-2.4Zm0-16.85a6.13,6.13,0,0,0-5.45-3.37c-4.34,0-6.94,3.5-6.94,8.17s2.59,8.1,6.94,8.1a6,6,0,0,0,5.45-3.37V34Z" transform="translate(-0.18 -0.17)"/><path class="cls-1" d="M392.63,53.25h-8V50.6a10.49,10.49,0,0,1-7.78,3.31c-6.48,0-10.18-4.28-10.18-10.7V24.28h8V41.59c0,3,1.49,5.12,4.67,5.12a5.15,5.15,0,0,0,5.19-4V24.28h8.1v29Z" transform="translate(-0.18 -0.17)"/><path class="cls-1" d="M410.46,23.63c7.26,0,11.86,4.28,12.71,10.44h-7.91c-0.45-2.2-2.2-3.56-4.8-3.56-3.69,0-6,3.37-6,8.3s2.27,8.23,6,8.23c2.59,0,4.34-1.36,4.8-3.56h7.91c-0.84,6.22-5.45,10.44-12.71,10.44-8.23,0-13.94-6.16-13.94-15.1S402.22,23.63,410.46,23.63Z" transform="translate(-0.18 -0.17)"/><path class="cls-1" d="M443.9,53.25V51.7c-1,1-3.89,2.07-7.07,2.07-5.83,0-10.76-3.37-10.76-9.4,0-5.51,4.93-9.27,11.21-9.27a13.48,13.48,0,0,1,6.61,1.69V34.65c0-2.46-1.49-4.47-4.73-4.47a4.16,4.16,0,0,0-4.28,2.72h-7.65c0.84-5.25,5.57-9.27,12.19-9.27,7.71,0,12.19,4.21,12.19,11.15V53.25H443.9Zm0-10c-0.71-1.56-2.92-2.53-5.25-2.53-2.53,0-5.12,1.1-5.12,3.56s2.59,3.57,5.12,3.57c2.33,0,4.54-1,5.25-2.53V43.27Z" transform="translate(-0.18 -0.17)"/><path class="cls-1" d="M459,30.76h-4.41V24.28H459V16.44h8v7.84h6.35v6.48H467v12.7c0,2.27,1.23,3.31,3.31,3.31a6.9,6.9,0,0,0,3.5-1v7.13a12.2,12.2,0,0,1-5.19.91c-5.9,0-9.59-2.92-9.59-9.33V30.76Z" transform="translate(-0.18 -0.17)"/><path class="cls-1" d="M482.4,20.52a4.6,4.6,0,1,1,4.73-4.6A4.62,4.62,0,0,1,482.4,20.52Zm4,32.73h-8v-29h8v29Z" transform="translate(-0.18 -0.17)"/><path class="cls-1" d="M504.57,53.9c-8.43,0-14.2-6.22-14.2-15.1s5.77-15.17,14.2-15.17,14.2,6.22,14.2,15.17S513,53.9,504.57,53.9Zm0-23.46c-4,0-6.22,3.5-6.22,8.36s2.2,8.3,6.22,8.3,6.22-3.5,6.22-8.3S508.58,30.44,504.57,30.44Z" transform="translate(-0.18 -0.17)"/><path class="cls-1" d="M522.65,24.28h8v2.66a10.38,10.38,0,0,1,7.78-3.31c6.55,0,10.24,4.28,10.24,10.7V53.25h-8V36c0-3-1.55-5.12-4.73-5.12a5.27,5.27,0,0,0-5.25,4V53.25h-8v-29Z" transform="translate(-0.18 -0.17)"/></svg>