<?xml version="1.0" encoding="utf-8"?>
<!-- Generator: Adobe Illustrator 19.0.0, SVG Export Plug-In . SVG Version: 6.00 Build 0)  -->
<svg version="1.1" id="Layer_1" xmlns="http://www.w3.org/2000/svg" xmlns:xlink="http://www.w3.org/1999/xlink" x="0px" y="0px"
	 viewBox="0 0 565.9 67.4" style="enable-background:new 0 0 565.9 67.4;" xml:space="preserve">
<style type="text/css">
	.st0{fill:#007EE5;}
</style>
<g id="XMLID_30_">
	<g id="XMLID_40_">
		<g id="XMLID_41_">
			<g id="XMLID_48_">
				<path id="XMLID_65_" class="st0" d="M82.8,14H97c12.2,0,19.9,7.9,19.9,20.1S109.2,54.3,97,54.3H82.8V14z M96.7,46.9
					c7.7,0,11.9-4.9,11.9-12.7c0-7.9-4.2-12.8-11.9-12.8h-5.6v25.5H96.7z"/>
				<path id="XMLID_63_" class="st0" d="M138.5,32.9c-1.1-0.7-2.6-1-4.1-1c-2.8,0-5,1.4-5.6,4.1v18.2h-8.1V24.9h8.1v2.9
					c1.2-2.1,3.7-3.5,6.6-3.5c1.4,0,2.6,0.3,3.1,0.5V32.9z"/>
				<path id="XMLID_60_" class="st0" d="M154.7,54.9c-8.5,0-14.4-6.3-14.4-15.3c0-9.1,5.8-15.4,14.4-15.4c8.5,0,14.4,6.3,14.4,15.4
					C169.1,48.6,163.2,54.9,154.7,54.9z M154.7,31.2c-4.1,0-6.3,3.5-6.3,8.5c0,4.9,2.2,8.4,6.3,8.4c4.1,0,6.3-3.5,6.3-8.4
					C161,34.7,158.8,31.2,154.7,31.2z"/>
				<path id="XMLID_57_" class="st0" d="M180.7,65.1h-8.1V24.9h8.1v2.4c1.3-1.6,4.2-3.1,7.3-3.1c8.5,0,13.4,7.1,13.4,15.4
					c0,8.3-4.9,15.3-13.4,15.3c-3.1,0-6-1.5-7.3-3.1V65.1z M180.7,44.4c1,2,3.1,3.4,5.5,3.4c4.4,0,7-3.5,7-8.2c0-4.7-2.6-8.3-7-8.3
					c-2.4,0-4.5,1.4-5.5,3.4V44.4z"/>
				<path id="XMLID_54_" class="st0" d="M213.1,54.3h-8.2V11.6h8.2v15.7c1.3-1.6,4.2-3.1,7.3-3.1c8.5,0,13.3,7,13.3,15.4
					s-4.8,15.3-13.3,15.3c-3.1,0-6-1.5-7.3-3.1V54.3z M213.1,44.4c0.9,2,3.1,3.4,5.5,3.4c4.4,0,7-3.5,7-8.2c0-4.7-2.6-8.3-7-8.3
					c-2.4,0-4.6,1.4-5.5,3.4V44.4z"/>
				<path id="XMLID_51_" class="st0" d="M251.1,55c-8.5,0-14.4-6.3-14.4-15.3c0-9.1,5.8-15.4,14.4-15.4c8.5,0,14.4,6.3,14.4,15.4
					C265.5,48.7,259.6,55,251.1,55z M251.1,31.3c-4.1,0-6.3,3.5-6.3,8.5c0,4.9,2.2,8.4,6.3,8.4c4.1,0,6.3-3.5,6.3-8.4
					C257.4,34.8,255.2,31.3,251.1,31.3z"/>
				<path id="XMLID_49_" class="st0" d="M283.8,39.1l10.7,15.2h-9l-6.3-9.2l-6.4,9.2h-8.5l10.6-15l-10-14.4h9l5.6,8.3l5.8-8.3h8.5
					L283.8,39.1z"/>
			</g>
			<g id="XMLID_42_">
				<polygon id="XMLID_47_" class="st0" points="21.4,0.2 0.2,13.8 14.9,25.7 36.2,12.5 				"/>
				<polygon id="XMLID_46_" class="st0" points="0.2,37.3 21.4,51.3 36.2,38.9 14.9,25.7 				"/>
				<polygon id="XMLID_45_" class="st0" points="36.2,38.9 51.1,51.3 72.2,37.4 57.6,25.7 				"/>
				<polygon id="XMLID_44_" class="st0" points="72.2,14 51.1,0.2 36.2,12.5 57.6,25.7 				"/>
				<polygon id="XMLID_43_" class="st0" points="36.3,41.6 21.4,53.9 15.1,49.7 15.1,54.4 36.3,67.1 57.5,54.4 57.5,49.7 51.1,53.9 
									"/>
			</g>
		</g>
	</g>
	<g id="XMLID_2_">
		<path id="XMLID_5_" class="st0" d="M332.3,14v7.3h-19.1v8.8h17.3v7.1h-17.3v9.6h19.1v7.4H305V14H332.3z"/>
		<path id="XMLID_8_" class="st0" d="M338,24.9h8.1v2.7c1.6-1.8,4.5-3.3,7.9-3.3c6.6,0,10.4,4.3,10.4,10.8v19.1h-8.1V36.8
			c0-3.1-1.6-5.2-4.8-5.2c-2.5,0-4.7,1.5-5.3,4.1v18.5H338V24.9z"/>
		<path id="XMLID_10_" class="st0" d="M372.2,31.5h-4.5v-6.6h4.5V17h8.1v7.9h6.4v6.6h-6.4v12.8c0,2.3,1.2,3.3,3.3,3.3
			c1.2,0,2.6-0.4,3.5-1v7.2c-1.1,0.6-3.1,0.9-5.2,0.9c-6,0-9.7-2.9-9.7-9.4V31.5z"/>
		<path id="XMLID_12_" class="st0" d="M416.5,44.6c-1,6.2-5.6,10.2-13,10.2c-8.5,0-14.2-6.2-14.2-15.3c0-8.8,5.9-15.3,14.1-15.3
			c8.6,0,13.3,6,13.3,14.5v2.5h-19.5c0.3,4.4,2.8,7,6.4,7c2.8,0,4.8-1.2,5.4-3.7H416.5z M397.3,36.4h11.3c-0.1-3.1-1.9-5.5-5.2-5.5
			C400.3,30.9,398.1,32.8,397.3,36.4z"/>
		<path id="XMLID_15_" class="st0" d="M439.1,32.9c-1.1-0.7-2.6-1-4.1-1c-2.8,0-5,1.4-5.6,4.1v18.2h-8.1V24.9h8.1v2.9
			c1.2-2.1,3.7-3.5,6.6-3.5c1.4,0,2.6,0.3,3.1,0.5V32.9z"/>
		<path id="XMLID_17_" class="st0" d="M451.1,65H443V24.9h8.1v2.4c1.3-1.6,4.2-3.1,7.3-3.1c8.5,0,13.4,7.1,13.4,15.3
			c0,8.3-4.8,15.3-13.4,15.3c-3.1,0-6-1.5-7.3-3.1V65z M451.1,44.4c1,2,3.1,3.4,5.5,3.4c4.4,0,7-3.5,7-8.2c0-4.7-2.6-8.3-7-8.3
			c-2.4,0-4.5,1.4-5.5,3.4V44.4z"/>
		<path id="XMLID_20_" class="st0" d="M493.6,32.9c-1.1-0.7-2.6-1-4.1-1c-2.8,0-5,1.4-5.6,4.1v18.2h-8.1V24.9h8.1v2.9
			c1.2-2.1,3.7-3.5,6.6-3.5c1.4,0,2.6,0.3,3.1,0.5V32.9z"/>
		<path id="XMLID_22_" class="st0" d="M502.1,21.1c-2.6,0-4.8-1.9-4.8-4.7c0-2.7,2.2-4.7,4.8-4.7c2.6,0,4.8,2,4.8,4.7
			C506.9,19.2,504.7,21.1,502.1,21.1z M506.2,54.2h-8.1V24.9h8.1V54.2z"/>
		<path id="XMLID_25_" class="st0" d="M518.2,45.5c0.7,2.1,2.5,3.2,4.9,3.2c2.5,0,4.1-1,4.1-2.9c0-1.3-0.9-2-2.9-2.5l-5.9-1.3
			c-4.5-1-7.6-3.3-7.6-8.3c0-5.7,5.1-9.5,11.7-9.5c7.4,0,11.5,3.5,12.5,9h-7.7c-0.5-1.6-1.9-2.9-4.6-2.9c-2,0-3.9,0.9-3.9,2.8
			c0,1.2,0.8,1.8,2.6,2.3l6,1.4c5.1,1.2,7.8,4.1,7.8,8.5c0,6-5.2,9.5-12,9.5c-7.1,0-12.2-3.4-13-9.4H518.2z"/>
		<path id="XMLID_27_" class="st0" d="M565.4,44.6c-1,6.2-5.6,10.2-13,10.2c-8.5,0-14.2-6.2-14.2-15.3c0-8.8,5.9-15.3,14.1-15.3
			c8.6,0,13.3,6,13.3,14.5v2.5h-19.5c0.3,4.4,2.8,7,6.4,7c2.8,0,4.8-1.2,5.4-3.7H565.4z M546.3,36.4h11.3c-0.1-3.1-1.9-5.5-5.2-5.5
			C549.2,30.9,547,32.8,546.3,36.4z"/>
	</g>
</g>
</svg>
