<svg id="Layer_1" data-name="Layer 1" xmlns="http://www.w3.org/2000/svg" viewBox="0 0 1209.22 504.28"><defs><style>.cls-1{fill:#fff;}</style></defs><title>Dropbox_education_vertical_white</title><g id="_Group_" data-name="&lt;Group&gt;"><polygon id="_Path_" data-name="&lt;Path&gt;" class="cls-1" points="538.65 0 444.1 61.03 509.53 113.88 604.69 55.12 538.65 0"/><polygon id="_Path_2" data-name="&lt;Path&gt;" class="cls-1" points="444.1 165.55 538.65 227.77 604.69 172.64 509.53 113.88 444.1 165.55"/><polygon id="_Path_3" data-name="&lt;Path&gt;" class="cls-1" points="604.69 172.64 670.74 227.77 765.12 166.15 699.86 113.88 604.69 172.64"/><polygon id="_Path_4" data-name="&lt;Path&gt;" class="cls-1" points="765.13 61.62 670.75 0 604.7 55.12 699.87 113.88 765.13 61.62"/><polygon id="_Path_5" data-name="&lt;Path&gt;" class="cls-1" points="604.88 184.5 538.65 239.47 510.31 220.96 510.31 241.7 604.88 298.42 699.46 241.7 699.46 220.96 671.13 239.47 604.88 184.5"/></g><g id="_Group_2" data-name="&lt;Group&gt;"><g id="_Group_3" data-name="&lt;Group&gt;"><g id="_Group_4" data-name="&lt;Group&gt;"><path id="_Compound_Path_" data-name="&lt;Compound Path&gt;" class="cls-1" d="M0,373.83H36.62c31.38,0,51.13,20.25,51.13,51.8S68,477.44,36.62,477.44H0V373.83Zm35.78,84.53c19.73,0,30.53-12.66,30.53-32.73,0-20.25-10.8-32.9-30.53-32.9H21.43v65.64H35.78Z" transform="translate(0 -1)"/><path id="_Compound_Path_2" data-name="&lt;Compound Path&gt;" class="cls-1" d="M143.29,422.6a21,21,0,0,0-10.47-2.53c-7.09,0-12.83,3.71-14.34,10.63v46.74H97.56V402h20.93v7.42a19.37,19.37,0,0,1,16.87-9.11c3.54,0,6.74.68,7.93,1.35V422.6Z" transform="translate(0 -1)"/><path id="_Compound_Path_3" data-name="&lt;Compound Path&gt;" class="cls-1" d="M185,479.12c-21.94,0-37-16.2-37-39.31,0-23.29,15-39.49,37-39.49S222,416.52,222,439.81C222,462.93,207,479.12,185,479.12ZM185,418c-10.47,0-16.2,9.11-16.2,21.77,0,12.48,5.73,21.6,16.2,21.6s16.2-9.11,16.2-21.6C201.22,427.16,195.48,418,185,418Z" transform="translate(0 -1)"/><path id="_Compound_Path_4" data-name="&lt;Compound Path&gt;" class="cls-1" d="M251.87,505.28H230.94V402h20.93v6.24c3.37-4,10.8-7.93,18.9-7.93,21.93,0,34.41,18.23,34.41,39.49s-12.48,39.31-34.41,39.31c-8.1,0-15.53-3.88-18.9-7.93v34.08Zm0-53.15A15.84,15.84,0,0,0,266,460.9c11.31,0,18-9.11,18-21.09,0-12.15-6.74-21.26-18-21.26a16,16,0,0,0-14.17,8.77v24.8Z" transform="translate(0 -1)"/><path id="_Compound_Path_5" data-name="&lt;Compound Path&gt;" class="cls-1" d="M335.25,477.44H314.15V367.76h21.09v40.5c3.37-4,10.8-7.93,18.9-7.93,21.93,0,34.25,17.89,34.25,39.49s-12.32,39.31-34.25,39.31c-8.1,0-15.53-3.88-18.9-7.93v6.24Zm0-25.31a15.46,15.46,0,0,0,14.17,8.78c11.31,0,18-9.11,18-21.09,0-12.15-6.74-21.26-18-21.26a16,16,0,0,0-14.17,8.77v24.8Z" transform="translate(0 -1)"/><path id="_Compound_Path_6" data-name="&lt;Compound Path&gt;" class="cls-1" d="M432.86,479.36c-21.94,0-37-16.2-37-39.31,0-23.29,15-39.49,37-39.49s36.95,16.2,36.95,39.49C469.81,463.16,454.79,479.36,432.86,479.36Zm0-61.08c-10.47,0-16.2,9.11-16.2,21.77,0,12.48,5.73,21.6,16.2,21.6s16.2-9.11,16.2-21.6C449.06,427.39,443.32,418.28,432.86,418.28Z" transform="translate(0 -1)"/><path id="_Compound_Path_7" data-name="&lt;Compound Path&gt;" class="cls-1" d="M516.87,438.51l27.5,39H521.26l-16.2-23.63-16.38,23.63H466.75L493.92,439l-25.64-37h23.11l14.51,21.43,14.85-21.43h21.93Z" transform="translate(0 -1)"/></g></g></g><path class="cls-1" d="M641.49,374v18.81H592.61v22.51H637v18.31H592.61v24.52h48.88v19h-70V374h70Z" transform="translate(0 -1)"/><path class="cls-1" d="M703.47,470.88c-3.36,4-10.75,7.9-18.81,7.9-21.84,0-34.1-17.64-34.1-39.14s12.26-39.31,34.1-39.31c8.06,0,15.45,3.86,18.81,7.89V367.91h21V477.1h-21v-6.22Zm0-43.67a15.9,15.9,0,0,0-14.11-8.73c-11.25,0-18,9.07-18,21.17,0,11.93,6.72,21,18,21a15.41,15.41,0,0,0,14.11-8.73V427.21Z" transform="translate(0 -1)"/><path class="cls-1" d="M804.75,477.1H783.92v-6.89a27.19,27.19,0,0,1-20.16,8.57c-16.8,0-26.37-11.09-26.37-27.72V402h20.83v44.85c0,7.89,3.86,13.27,12.09,13.27,6.38,0,11.92-3.86,13.44-10.41V402h21V477.1Z" transform="translate(0 -1)"/><path class="cls-1" d="M850.94,400.33c18.81,0,30.74,11.09,32.93,27H863.37c-1.18-5.71-5.71-9.24-12.43-9.24-9.57,0-15.45,8.73-15.45,21.5,0,12.6,5.88,21.33,15.45,21.33,6.72,0,11.25-3.53,12.43-9.24h20.49c-2.18,16.13-14.11,27-32.93,27-21.33,0-36.11-16-36.11-39.14C814.83,416.29,829.61,400.33,850.94,400.33Z" transform="translate(0 -1)"/><path class="cls-1" d="M937.62,477.1v-4c-2.52,2.52-10.08,5.38-18.31,5.38-15.12,0-27.88-8.73-27.88-24.36,0-14.28,12.77-24,29.06-24,6.55,0,14.11,2.18,17.13,4.37v-5.54c0-6.38-3.86-11.59-12.26-11.59-5.88,0-9.41,2.69-11.09,7.05H894.45c2.18-13.61,14.45-24,31.58-24,20,0,31.58,10.92,31.58,28.89V477.1h-20Zm0-25.87c-1.85-4-7.56-6.55-13.61-6.55-6.55,0-13.27,2.86-13.27,9.24,0,6.55,6.72,9.24,13.27,9.24,6,0,11.76-2.52,13.61-6.55v-5.38Z" transform="translate(0 -1)"/><path class="cls-1" d="M976.75,418.81H965.33V402h11.42V381.68h20.66V402h16.46v16.8H997.41v32.92c0,5.88,3.19,8.57,8.57,8.57a17.87,17.87,0,0,0,9.07-2.52v18.48c-2.86,1.51-7.9,2.35-13.44,2.35-15.29,0-24.86-7.56-24.86-24.19V418.81Z" transform="translate(0 -1)"/><path class="cls-1" d="M1037.39,392.27c-6.72,0-12.43-4.87-12.43-11.93,0-6.89,5.71-11.93,12.43-11.93a12,12,0,0,1,12.26,11.93C1049.65,387.4,1043.93,392.27,1037.39,392.27Zm10.41,84.83H1027V402h20.83V477.1Z" transform="translate(0 -1)"/><path class="cls-1" d="M1094.83,478.78c-21.84,0-36.79-16.13-36.79-39.14,0-23.18,14.95-39.31,36.79-39.31s36.79,16.13,36.79,39.31C1131.62,462.65,1116.67,478.78,1094.83,478.78Zm0-60.81c-10.41,0-16.13,9.07-16.13,21.67,0,12.43,5.71,21.5,16.13,21.5s16.13-9.07,16.13-21.5C1111,427,1105.25,418,1094.83,418Z" transform="translate(0 -1)"/><path class="cls-1" d="M1141.69,402h20.83v6.89c4-4.7,11.42-8.57,20.16-8.57,17,0,26.54,11.09,26.54,27.72V477.1h-20.83V432.41c0-7.89-4-13.27-12.26-13.27a13.65,13.65,0,0,0-13.61,10.42V477.1h-20.83V402Z" transform="translate(0 -1)"/></svg>